# xmcd
#
# Track frame offsets:
#	150
#	20867
#	48210
#	66547
#	84720
#	105130
#	118247
#	132207
#	164070
#	180702
#	206377
#	222515
#	242217
#	259465
#	272172
#	289695
#	312312
#
# Disc length: 4379 seconds
# Revision: 14
# Processed by: cddbd v1.5.2PL0 Copyright (c) Steve Scherf et al.
# Submitted via: dBpowerAMP V12.0
#
DISCID=0e111911
DTITLE=Various Artist - The Alligator records 20th anniversary collection [CD2)
DYEAR=1991
DGENRE=Blues
TTITLE0=Albert Collins - Brick
TTITLE1=Katie Webster - Pussycat moan
TTITLE2=Lil' Ed and The Blues Imperials - You don't exist any more
TTITLE3=Carey Bell and Juniour Wells - Second hand man
TTITLE4=Delbert McClinton - I've got dreams to remember
TTITLE5=Paladins - Going down to big Mary's
TTITLE6=Big Twist and The Mellow Fellows - 300 pounds of heaveny joy
TTITLE7=Son Seals - Going back home
TTITLE8=Lonnie Mack - Strike like lightning
TTITLE9=Saffire-The Uppity Blues Women - The middle aged blued boogie
TTITLE10=Lonnie Brooks - Eyeballin'
TTITLE11=Kinsey Report - Full moon on main street
TTITLE12=Sonny Terry - Crow Jane
TTITLE13=Clifton Chenier - I'm the zydeco man
TTITLE14=Fenton Robinson - You don't know what love is
TTITLE15=Pinetop Perkins - Blues after hours
TTITLE16=Johnny Winter - Boot hill
EXTD=
EXTT0=
EXTT1=
EXTT2=
EXTT3=
EXTT4=
EXTT5=
EXTT6=
EXTT7=
EXTT8=
EXTT9=
EXTT10=
EXTT11=
EXTT12=
EXTT13=
EXTT14=
EXTT15=
EXTT16=
PLAYORDER=
